<svg xmlns="http://www.w3.org/2000/svg" width="100" height="100" viewBox="0 0 100 100">
  <!-- 背景圆形 -->
  <circle cx="50" cy="50" r="48" fill="#0369a1" />
  <circle cx="50" cy="50" r="45" fill="#0ea5e9" />
  
  <!-- 列车轨道 -->
  <path d="M20,70 L80,70" stroke="white" stroke-width="4" stroke-linecap="round" />
  <path d="M25,75 L75,75" stroke="white" stroke-width="3" stroke-linecap="round" />
  
  <!-- 列车 -->
  <rect x="30" y="40" width="40" height="25" rx="5" fill="white" />
  
  <!-- 窗户 -->
  <rect x="35" y="45" width="8" height="8" rx="2" fill="#0369a1" />
  <rect x="47" y="45" width="8" height="8" rx="2" fill="#0369a1" />
  <rect x="59" y="45" width="8" height="8" rx="2" fill="#0369a1" />
  
  <!-- 列车头 -->
  <path d="M70,52 L80,52 C80,52 80,65 70,65 Z" fill="white" />
  
  <!-- 轮子 -->
  <circle cx="37" cy="70" r="4" fill="white" />
  <circle cx="63" cy="70" r="4" fill="white" />
  
  <!-- 帽子（列车长标志） -->
  <path d="M40,35 L60,35 L65,40 L35,40 Z" fill="white" />
  <rect x="45" y="25" width="10" height="10" rx="2" fill="white" />
</svg> 